# xmcd
#
# Track frame offsets:
#	150
#	12941
#	25267
#	40690
#	53883
#	72744
#	95518
#	110902
#	121313
#	135320
#	152439
#	169370
#	181977
#	195125
#	209852
#	222806
#
# Disc length: 3216 seconds
#
# Revision: 2
# Processed by: cddbd v1.5PL3 Copyright (c) Steve Scherf et al.
# Submitted via: audiograbber 1.83.01
#
DISCID=e30c8e10
DTITLE=Fleetwood Mac - Man of the world
DYEAR=1978
DGENRE=Pop
TTITLE0=Man Of The World
TTITLE1=Black Magic Woman
TTITLE2=Need Your Love Tonight
TTITLE3=My Heart Beat Like A Hammer
TTITLE4=Watch Out
TTITLE5=Love That Burns
TTITLE6=I Can't Hold Out
TTITLE7=Stop Messin' Around
TTITLE8=Albatross
TTITLE9=Need Your Love So Bad
TTITLE10=Like It This Way
TTITLE11=Looking For Somebody
TTITLE12=Shake Your Moneymaker
TTITLE13=Homework
TTITLE14=I Believe My Time Ain't Long
TTITLE15=Merry Go Round
EXTD=
EXTT0=
EXTT1=
EXTT2=
EXTT3=
EXTT4=
EXTT5=
EXTT6=
EXTT7=
EXTT8=
EXTT9=
EXTT10=
EXTT11=
EXTT12=
EXTT13=
EXTT14=
EXTT15=
PLAYORDER=
